<?xml version="1.0" encoding="utf-8"?>
<!-- Generator: Adobe Illustrator 28.0.0, SVG Export Plug-In . SVG Version: 6.00 Build 0)  -->
<svg version="1.1" xmlns="http://www.w3.org/2000/svg" xmlns:xlink="http://www.w3.org/1999/xlink" x="0px" y="0px"
	 viewBox="0 0 350 350" style="enable-background:new 0 0 350 350;" xml:space="preserve">
<style type="text/css">
	.st0{fill:#DCDCDC;}
	.st1{fill:#E7E5C9;}
	.st2{fill:#3DA000;}
	.st3{clip-path:url(#SVGID_00000112610359417717490680000002960446226183002780_);}
	.st4{fill:#C7B299;}
	.st5{fill:#603813;}
	.st6{fill:#7AC943;}
	.st7{fill:#F15A24;}
	.st8{fill:none;stroke:#42210B;stroke-miterlimit:10;}
	.st9{clip-path:url(#SVGID_00000047763566910404747850000011546432236041185195_);}
	.st10{fill:#E4F1F3;stroke:#42210B;stroke-miterlimit:10;}
	.st11{fill:#EFEA16;stroke:#42210B;stroke-miterlimit:10;}
	.st12{fill:url(#SVGID_00000057862743602887727550000004433396121074893754_);stroke:#42210B;stroke-miterlimit:10;}
	.st13{fill:url(#SVGID_00000031195839923741125440000007858573637983253898_);stroke:#42210B;stroke-miterlimit:10;}
	.st14{fill:#CCCCCC;}
	.st15{fill:none;stroke:#0000FF;stroke-miterlimit:10;}
	.st16{fill:#42210B;}
	.st17{fill:#E7E5C9;stroke:#42210B;stroke-miterlimit:10;}
	.st18{fill:#0000FF;}
	.st19{fill:#CCCCCC;stroke:#0000FF;stroke-miterlimit:10;}
	.st20{fill:none;}
</style>
<g id="Layer_1">
</g>
<g id="Layer_2">
	<path class="st20" d="M272.57,214.95c21.5,0,38.93-17.43,38.93-38.93s-17.43-38.93-38.93-38.93c-0.02,0-0.05,0-0.07,0v-20.25
		c0.02,0,0.05,0,0.07,0c21.5,0,38.93-17.43,38.93-38.93S294.07,39,272.57,39s-38.93,17.43-38.93,38.93c0,0.02,0,0.05,0,0.07h-19.73
		c0-0.02,0-0.05,0-0.07C213.93,56.43,196.5,39,175,39s-38.93,17.43-38.93,38.93c0,0.02,0,0.05,0,0.07h-19.73c0-0.02,0-0.05,0-0.07
		c0-21.5-17.43-38.93-38.93-38.93S38.5,56.43,38.5,77.93s17.43,38.93,38.93,38.93c0.02,0,0.05,0,0.07,0v20.25c-0.02,0-0.05,0-0.07,0
		c-21.5,0-38.93,17.43-38.93,38.93s17.43,38.93,38.93,38.93c0.02,0,0.05,0,0.07,0v19.2c-0.02,0-0.05,0-0.07,0
		c-21.5,0-38.93,17.43-38.93,38.93S55.93,312,77.43,312s38.93-17.43,38.93-38.93c0-0.02,0-0.05,0-0.07h20.25c0,0.02,0,0.05,0,0.07
		c0,21.5,17.43,38.93,38.93,38.93s38.93-17.43,38.93-38.93c0-0.02,0-0.05,0-0.07h19.2c0,0.02,0,0.05,0,0.07
		c0,21.5,17.43,38.93,38.93,38.93s38.93-17.43,38.93-38.93s-17.43-38.93-38.93-38.93c-0.02,0-0.05,0-0.07,0v-19.2
		C272.52,214.95,272.55,214.95,272.57,214.95z"/>
</g>
</svg>
