<?xml version="1.0" encoding="UTF-8"?>
<svg id="Layer_1" data-name="Layer 1" xmlns="http://www.w3.org/2000/svg" viewBox="0 0 350 350">
  <defs>
    <style>
      .cls-1 {
        fill: blue;
        stroke-width: 0px;
      }
    </style>
  </defs>
  <path class="cls-1" d="m270.07,213.95c21.5,0,38.93-17.43,38.93-38.93s-17.43-38.93-38.93-38.93c-.02,0-.05,0-.07,0v-20.25s.05,0,.07,0c21.5,0,38.93-17.43,38.93-38.93s-17.43-38.93-38.93-38.93-38.93,17.43-38.93,38.93c0,.02,0,.05,0,.07h-19.73s0-.05,0-.07c0-21.5-17.43-38.93-38.93-38.93s-38.93,17.43-38.93,38.93c0,.02,0,.05,0,.07h-19.73s0-.05,0-.07c0-21.5-17.43-38.93-38.93-38.93s-38.93,17.43-38.93,38.93,17.43,38.93,38.93,38.93c.02,0,.05,0,.07,0v20.25s-.05,0-.07,0c-21.5,0-38.93,17.43-38.93,38.93s17.43,38.93,38.93,38.93c.02,0,.05,0,.07,0v19.2s-.05,0-.07,0c-21.5,0-38.93,17.43-38.93,38.93s17.43,38.93,38.93,38.93,38.93-17.43,38.93-38.93c0-.02,0-.05,0-.07h20.25s0,.05,0,.07c0,21.5,17.43,38.93,38.93,38.93s38.93-17.43,38.93-38.93c0-.02,0-.05,0-.07h19.2s0,.05,0,.07c0,21.5,17.43,38.93,38.93,38.93s38.93-17.43,38.93-38.93-17.43-38.93-38.93-38.93c-.02,0-.05,0-.07,0v-19.2s.05,0,.07,0Z"/>
</svg>